<svg width="114" height="45" viewBox="0 0 114 45" fill="none" xmlns="http://www.w3.org/2000/svg">
<path d="M58.5973 20.5621C58.0636 20.1682 56.6646 18.5326 55.5806 17.175L55.1815 16.6751L53.5776 14.5556C53.0998 13.8865 53.1816 13.1958 53.8329 12.4864C53.9086 12.3992 54.0271 12.2696 54.1754 12.1104C54.2962 11.9858 54.4224 11.8562 54.5577 11.7186L54.5607 11.7157C54.6142 11.6632 54.6678 11.607 54.7236 11.5494L54.7801 11.491C54.9376 11.3326 55.0806 11.1864 55.2098 11.0546C55.9399 10.3401 56.5973 9.74236 56.9284 9.53854C57.3213 9.29511 57.5407 9.08337 57.2151 8.54393H57.2097C57.2066 8.54105 57.2066 8.53889 57.2043 8.53312C57.0354 8.21839 56.0974 7.27923 54.7412 7.19137C54.7297 7.18849 54.719 7.18849 54.7106 7.18633C54.6968 7.18633 54.6853 7.18633 54.6739 7.18344C54.6571 7.18344 54.6402 7.18344 54.6234 7.18344C54.5928 7.18344 54.5615 7.18056 54.5309 7.18056C54.5141 7.18056 54.5003 7.18056 54.4835 7.18056C54.4529 7.18344 54.4247 7.18344 54.3933 7.18561C54.3627 7.18849 54.3344 7.18849 54.3031 7.19065C54.0783 7.20937 53.8819 7.25979 53.6938 7.33613C53.6854 7.33901 53.68 7.34117 53.6716 7.34405C53.6433 7.35702 53.6128 7.3707 53.5814 7.38366C53.3567 7.48665 53.1434 7.62422 52.9553 7.79923L52.8987 7.85468C52.6908 8.03186 52.4721 8.24648 52.2191 8.49784L49.6802 10.8976C49.3744 11.1857 48.9524 11.6308 48.1803 11.6308C47.6298 11.6308 47.2453 11.2577 47.2453 10.6858L47.2537 3.86182V3.85894V3.83229C47.2537 3.80348 47.2537 3.77684 47.2507 3.74731H47.2537C47.24 2.33137 46.779 1.26041 45.9984 0.738975C45.4449 0.370946 44.8272 0.257152 44.2714 0.254991C43.614 0.239147 43.0383 0.400474 42.783 0.501304C42.0781 0.773545 42.0896 1.01194 42.2188 1.45919C42.3594 1.94605 42.4374 3.36991 42.4688 4.78513V20.6291C42.4688 22.2935 43.351 22.7753 44.643 22.7753H45.1544C46.3761 22.7753 47.2606 22.2618 47.2606 20.6291V20.3857C47.2858 19.9067 47.2552 17.3349 47.2552 16.9351C47.2552 16.1386 47.7858 15.9484 48.1627 15.9484C49.0923 15.9484 49.4348 16.4483 50.0082 17.1022C50.2803 17.409 52.466 19.9867 53.6372 21.3018H53.6342C54.5753 22.3605 55.4231 22.7732 56.3053 22.7732C57.6363 22.7732 58.5858 21.8945 58.7968 21.5769C59.1668 21.0648 58.9673 20.8351 58.5973 20.5621Z" fill="white"/>
<path d="M38.178 0.740928C37.6275 0.372899 37.0098 0.259105 36.4563 0.256944C35.7989 0.2411 35.2232 0.402428 34.9701 0.503257C34.2622 0.775498 34.2767 1.01389 34.4029 1.46114C34.5802 2.07476 34.6613 4.17347 34.6666 5.87461L34.6697 7.17676V20.6714C34.6697 22.3221 35.5794 22.7989 36.8294 22.7989H37.3347C38.548 22.7989 39.4241 22.2912 39.4241 20.6714V3.86305C39.4241 3.82344 39.4241 3.78599 39.4241 3.74926C39.4104 2.33404 38.9524 1.26236 38.178 0.740928Z" fill="white"/>
<path d="M17.0413 5.07836C18.5436 5.0654 19.6842 4.63399 20.2346 3.90369C21.0802 2.78448 20.6727 1.3635 20.49 0.919128C20.3829 0.65697 20.1582 0.601514 20.0489 0.598633C20.0489 0.598633 3.74758 0.598633 3.70782 0.598633C2.20636 0.611597 1.06574 1.043 0.515302 1.7733C-0.330227 2.89251 0.0772478 4.31349 0.259962 4.75787C0.366991 5.02002 0.590987 5.07548 0.701074 5.07764H7.10982C7.51117 5.09853 7.85137 5.37437 7.9607 5.7496V20.653C7.9607 21.4467 8.17093 21.9681 8.52795 22.2965C8.91555 22.6804 9.48586 22.8179 10.1571 22.8179H10.6624C11.8757 22.8179 12.7518 22.3073 12.7518 20.6883V6.01536C12.7518 5.50977 13.1478 5.10501 13.6424 5.07836C13.6424 5.07836 17.0016 5.07836 17.0413 5.07548V5.07836Z" fill="white"/>
<path d="M26.9349 16.0485C26.9349 17.7763 25.2836 19.3665 22.9213 19.3665C21.3343 19.3665 20.6493 18.7471 20.6493 17.7763C20.6493 16.5937 22.4948 15.3549 26.0588 15.1194L26.2584 15.1086H26.2553C26.623 15.1086 26.9235 15.3837 26.9349 15.728V16.0485ZM31.6174 17.033L31.6258 13.1331C31.6258 8.64829 30.5808 6.04688 23.8655 6.04688C18.8405 6.04688 16.6693 8.0289 16.6693 9.96844C16.6693 11.733 18.9139 11.9209 19.5622 11.8972C19.6325 11.8864 19.7334 11.8547 19.8068 11.7438V11.7409C20.4329 10.5821 21.6102 9.49166 23.8204 9.49166C26.1406 9.49166 26.8287 10.1931 26.9128 11.9022C26.9013 12.1456 26.6911 12.3387 26.4296 12.3387L26.4327 12.3415C24.6606 12.5 18.5851 13.1907 16.7932 15.2678C16.0012 16.1832 15.8047 17.2102 15.8047 18.472C15.8047 21.1102 17.8971 22.9546 21.335 22.9546C23.2898 22.9546 25.026 22.3352 26.2446 21.2506C26.2981 21.2002 26.357 21.1634 26.4128 21.1339C26.545 21.0569 26.7109 21.0122 26.8677 21.0172C26.9716 21.0201 27.1207 21.036 27.2247 21.139C27.2896 21.2023 27.3118 21.2578 27.3118 21.2578C27.506 21.7158 27.7751 22.0572 28.1291 22.2949C29.314 23.0915 30.817 22.7126 31.2857 22.5355C32.0157 22.2575 32.0043 22.014 31.8751 21.5567C31.6931 20.9251 31.6174 18.7738 31.6174 17.033Z" fill="white"/>
<path d="M92.1779 0.740928C91.6275 0.372899 91.0098 0.259105 90.4563 0.256944C89.7988 0.2411 89.2232 0.402427 88.9701 0.503257C88.2622 0.775498 88.2767 1.01389 88.4029 1.46114C88.5802 2.07476 88.6613 4.17346 88.6666 5.87461L88.6697 7.17675V20.7312C88.6697 22.3826 89.6276 22.8162 90.8745 22.8162H91.3829C92.5961 22.8162 93.4722 22.3056 93.4722 20.6865L93.4241 3.86305C93.4241 3.82344 93.4241 3.78599 93.4241 3.74926C93.4111 2.33404 92.9531 1.26236 92.1779 0.740928Z" fill="white"/>
<path d="M80.9342 16.0485C80.9342 17.7763 79.2829 19.3665 76.9206 19.3665C75.3335 19.3665 74.6485 18.7471 74.6485 17.7763C74.6485 16.5937 76.494 15.3549 80.0581 15.1194L80.2576 15.1086H80.2546C80.6223 15.1086 80.9227 15.3837 80.9342 15.728V16.0485ZM85.6167 17.033L85.6251 13.1331C85.6251 8.64829 84.5801 6.04688 77.8647 6.04688C72.8397 6.04688 70.6663 8.0289 70.6663 9.96844C70.6663 11.733 72.9131 11.9209 73.5622 11.8972C73.6325 11.8864 73.7334 11.8547 73.8068 11.7438V11.7409C74.4329 10.5821 75.6103 9.49166 77.8204 9.49166C80.1406 9.49166 80.8287 10.1931 80.9128 11.9022C80.9013 12.1456 80.6911 12.3387 80.4296 12.3387L80.4327 12.3415C78.6606 12.5 72.5852 13.1907 70.7932 15.2678C70.0012 16.1832 69.8047 17.2102 69.8047 18.472C69.8047 21.1102 71.8941 22.9546 75.335 22.9546C77.2898 22.9546 79.026 22.3352 80.2446 21.2506C80.2981 21.2002 80.357 21.1634 80.4128 21.1339C80.5451 21.0569 80.711 21.0122 80.8677 21.0172C80.9717 21.0201 81.1207 21.036 81.2247 21.139C81.2897 21.2023 81.3118 21.2578 81.3118 21.2578C81.506 21.7158 81.7751 22.0572 82.1291 22.2949C83.3141 23.0915 84.8171 22.7126 85.2857 22.5355C86.0158 22.2575 86.0043 22.014 85.8728 21.5567C85.6924 20.9251 85.6167 18.7738 85.6167 17.033Z" fill="white"/>
<path d="M112.604 20.5621C112.071 20.1682 110.672 18.5326 109.588 17.175L109.189 16.6751L107.585 14.5556C107.107 13.8865 107.189 13.1958 107.84 12.4864C107.916 12.3992 108.033 12.2696 108.182 12.1104C108.303 11.9858 108.429 11.8562 108.565 11.7186L108.568 11.7157C108.621 11.6632 108.675 11.607 108.731 11.5494L108.787 11.491C108.945 11.3326 109.088 11.1864 109.217 11.0546C109.947 10.3401 110.604 9.74236 110.935 9.53854C111.328 9.29511 111.548 9.08337 111.222 8.54393H111.217C111.214 8.54105 111.214 8.53889 111.211 8.53312C111.042 8.21839 110.104 7.27923 108.748 7.19137C108.737 7.18849 108.728 7.18849 108.718 7.18633C108.704 7.18633 108.692 7.18633 108.681 7.18344C108.664 7.18344 108.647 7.18344 108.63 7.18344C108.6 7.18344 108.569 7.18056 108.538 7.18056C108.521 7.18056 108.507 7.18056 108.491 7.18056C108.46 7.18344 108.432 7.18344 108.401 7.18561C108.371 7.18849 108.342 7.18849 108.311 7.19065C108.086 7.20937 107.89 7.25979 107.702 7.33613C107.693 7.33901 107.688 7.34117 107.682 7.34405C107.651 7.35702 107.62 7.3707 107.589 7.38366C107.364 7.48665 107.151 7.62422 106.963 7.79923L106.907 7.85468C106.699 8.03186 106.48 8.24648 106.227 8.49784L103.688 10.8976C103.382 11.1857 102.96 11.6308 102.188 11.6308C101.638 11.6308 101.253 11.2577 101.253 10.6858L101.262 3.86182V3.85894V3.83229C101.262 3.80348 101.262 3.77684 101.258 3.74731H101.262C101.248 2.33137 100.787 1.26041 100.006 0.738975C99.4527 0.370946 98.835 0.257152 98.2793 0.254991C97.6218 0.239147 97.0461 0.400474 96.7908 0.501304C96.0859 0.773545 96.0974 1.01194 96.2266 1.45919C96.3673 1.94605 96.4452 3.36991 96.4766 4.78513V20.6291C96.4766 22.2935 97.3588 22.7753 98.6508 22.7753H99.1622C100.384 22.7753 101.268 22.2618 101.268 20.6291V20.3857C101.294 19.9067 101.263 17.3349 101.263 16.9351C101.263 16.1386 101.794 15.9484 102.171 15.9484C103.1 15.9484 103.443 16.4483 104.016 17.1022C104.288 17.409 106.474 19.9867 107.645 21.3018H107.642C108.583 22.3605 109.431 22.7732 110.313 22.7732C111.644 22.7732 112.594 21.8945 112.805 21.5769C113.174 21.0648 112.975 20.8351 112.604 20.5621Z" fill="white"/>
<path d="M71.0538 5.07836C72.5561 5.0654 73.6967 4.63399 74.2471 3.90369C75.0927 2.78448 74.6852 1.3635 74.5025 0.919128C74.3954 0.65697 74.1707 0.601514 74.0613 0.598633C74.0613 0.598633 57.7601 0.598633 57.7203 0.598633C56.2173 0.611597 55.0775 1.043 54.527 1.7733C53.6815 2.89251 54.089 4.31349 54.2717 4.75787C54.3787 5.02002 54.6027 5.07548 54.7128 5.07764H61.1223C61.5237 5.09853 61.8639 5.37437 61.9732 5.7496V20.653C61.9732 21.4467 62.1834 21.9681 62.5404 22.2965C62.928 22.6804 63.4984 22.8179 64.1696 22.8179H64.6749C65.8882 22.8179 66.7643 22.3073 66.7643 20.6883V6.01536C66.7643 5.50977 67.1603 5.10501 67.6549 5.07836C67.6549 5.07836 71.0141 5.07836 71.0538 5.07548V5.07836Z" fill="white"/>
<path d="M7.96094 40.3392V29.3394C7.96094 28.9426 8.30037 28.6221 8.72237 28.6221H15.9858C16.3872 28.6221 16.6066 28.81 16.6066 29.1514V29.2652C16.6066 29.6224 16.3879 29.7946 15.9858 29.7946H9.32632V34.4039H14.3597C14.7611 34.4039 14.9836 34.5941 14.9836 34.9333V35.0104C14.9836 35.3705 14.7619 35.5397 14.3597 35.5397H9.32632V40.3392C9.32632 40.736 9.12373 40.924 8.72237 40.924H8.54272C8.16047 40.9233 7.96094 40.736 7.96094 40.3392Z" fill="white"/>
<path d="M24.7507 36.3671C24.7507 34.2691 23.2285 32.7026 21.1614 32.7026C19.0942 32.7026 17.5491 34.2317 17.5491 36.3304C17.5491 38.4291 19.0942 39.9948 21.1614 39.9948C23.2064 39.9948 24.7507 38.4658 24.7507 36.3671ZM16.2266 36.3304C16.2266 33.608 18.2937 31.623 21.1614 31.623C24.0091 31.623 26.0763 33.6288 26.0763 36.3671C26.0763 39.0902 24.0091 41.0744 21.1614 41.0744C18.2937 41.0744 16.2266 39.0686 16.2266 36.3304Z" fill="white"/>
<path d="M31.4082 31.625C32.2905 31.625 32.7927 31.9664 32.7927 32.5512C32.7927 33.0035 32.4724 33.2311 32.4304 33.1943C32.1498 32.9668 31.8096 32.8162 31.2676 32.8162C29.5627 32.8162 28.8999 34.4994 28.8999 36.8041V40.3389C28.8999 40.7912 28.6614 40.9237 28.3182 40.9237H28.1775C27.8373 40.9237 27.5957 40.7912 27.5957 40.3389V31.908C27.5957 31.8713 27.7983 31.7755 28.0368 31.7755C28.4779 31.7755 28.8793 31.9844 28.8793 32.966V33.5141C29.3021 32.2682 30.1246 31.625 31.4082 31.625Z" fill="white"/>
<path d="M37.9863 40.1318V29.3416C37.9863 28.9447 38.3258 28.6221 38.7478 28.6221H46.5112C46.9125 28.6221 47.135 28.8122 47.135 29.1514V29.2652C47.135 29.6253 46.9133 29.7946 46.5112 29.7946H39.3517V34.01H45.0869C45.4883 34.01 45.7108 34.198 45.7108 34.5393V34.6121C45.7108 34.9722 45.4891 35.1414 45.0869 35.1414H39.3517V39.6766H46.632C47.0333 39.6766 47.2558 39.8487 47.2558 40.1872V40.301C47.2558 40.6611 47.0341 40.8491 46.632 40.8491H38.7478C38.3258 40.8491 37.9863 40.5286 37.9863 40.1318Z" fill="white"/>
<path d="M51.5467 39.7355L54.3944 32.6868C54.6948 31.9485 54.9364 31.7793 55.3378 31.7793C55.7988 31.7793 55.9975 32.0832 55.9784 32.1394L52.4702 40.4744C52.3272 40.7949 52.1896 40.9642 51.5268 40.9642C50.8441 40.9642 50.7852 40.8317 50.6446 40.5119L47.0912 32.1401C47.0713 32.0631 47.2739 31.78 47.7341 31.78C48.1943 31.78 48.4168 31.9493 48.7173 32.6875L51.5467 39.7355Z" fill="white"/>
<path d="M64.3041 35.6308C64.1833 33.8555 63.0205 32.7017 61.2339 32.7017C59.4282 32.7017 58.0659 33.911 57.7845 35.6308H64.3041ZM61.3555 39.978C63.2201 39.978 64.0633 39.2211 64.6245 38.372C64.6665 38.3165 65.3882 38.4858 65.3882 39.0706C65.3882 39.695 63.9448 41.0735 61.3547 41.0735C58.4474 41.0735 56.4199 39.1469 56.4199 36.3878C56.4199 33.6466 58.4672 31.625 61.2339 31.625C63.9219 31.625 65.6886 33.4219 65.6886 36.1602V36.274C65.6886 36.6154 65.548 36.6895 65.1466 36.6895H57.7234C57.8251 38.5996 59.3303 39.978 61.3555 39.978Z" fill="white"/>
<path d="M71.3965 31.625C72.2788 31.625 72.781 31.9664 72.781 32.5512C72.781 33.0035 72.4607 33.2311 72.4187 33.1943C72.1381 32.9668 71.7979 32.8162 71.2559 32.8162C69.551 32.8162 68.8882 34.4994 68.8882 36.8041V40.3389C68.8882 40.7912 68.6497 40.9237 68.3064 40.9237H68.1658C67.8256 40.9237 67.584 40.7912 67.584 40.3389V31.908C67.584 31.8713 67.7866 31.7755 68.0251 31.7755C68.4662 31.7755 68.8676 31.9844 68.8676 32.966V33.5141C69.2896 32.2682 70.1129 31.625 71.3965 31.625Z" fill="white"/>
<path d="M76.1913 44.2475L77.7952 40.3922C77.354 40.3922 77.1744 40.2972 76.9947 39.9183L73.5033 32.1335C73.4834 32.0565 73.683 31.7734 74.1439 31.7734C74.6072 31.7734 74.8457 31.9636 75.1271 32.6254L78.1575 39.6742L80.7866 32.6622C81.0251 32.001 81.3256 31.7734 81.7476 31.7734C82.1099 31.7734 82.4303 32.0378 82.4104 32.0961L77.7952 43.7549C77.5337 44.4161 77.2134 44.5673 76.8739 44.5673C76.5116 44.5673 76.1714 44.3059 76.1913 44.2475Z" fill="white"/>
<path d="M91.235 36.3671C91.235 34.2691 89.7129 32.7026 87.6457 32.7026C85.5785 32.7026 84.0335 34.2317 84.0335 36.3304C84.0335 38.4291 85.5785 39.9948 87.6457 39.9948C89.6908 39.9948 91.235 38.4658 91.235 36.3671ZM82.7109 36.3304C82.7109 33.608 84.7781 31.623 87.6457 31.623C90.4935 31.623 92.5607 33.6288 92.5607 36.3671C92.5607 39.0902 90.4935 41.0744 87.6457 41.0744C84.7781 41.0744 82.7109 39.0686 82.7109 36.3304Z" fill="white"/>
<path d="M98.4959 31.625C101.024 31.625 102.288 33.2124 102.288 35.5941V40.3382C102.288 40.7905 102.046 40.923 101.706 40.923H101.565C101.223 40.923 100.984 40.7905 100.984 40.3382V35.6683C100.984 33.8742 100.04 32.7788 98.4133 32.7788C96.9302 32.7788 95.8263 33.5537 95.2652 34.6866V40.3389C95.2652 40.7912 95.0236 40.9237 94.6834 40.9237H94.5427C94.2025 40.9237 93.9609 40.7912 93.9609 40.3389V31.908C93.9609 31.8713 94.1605 31.7755 94.402 31.7755C94.8432 31.7755 95.2445 31.9844 95.2445 32.966V33.2491C95.9096 32.3049 97.0135 31.625 98.4959 31.625Z" fill="white"/>
<path d="M111.613 35.6308C111.493 33.8555 110.33 32.7017 108.543 32.7017C106.738 32.7017 105.375 33.911 105.094 35.6308H111.613ZM108.664 39.978C110.529 39.978 111.372 39.2211 111.933 38.372C111.975 38.3165 112.697 38.4858 112.697 39.0706C112.697 39.695 111.253 41.0735 108.663 41.0735C105.756 41.0735 103.729 39.1469 103.729 36.3878C103.729 33.6466 105.776 31.625 108.543 31.625C111.23 31.625 112.997 33.4219 112.997 36.1602V36.274C112.997 36.6154 112.857 36.6895 112.455 36.6895H105.032C105.134 38.5996 106.639 39.978 108.664 39.978Z" fill="white"/>
</svg>
