<svg width="40" height="40" viewBox="0 0 40 40" fill="none" xmlns="http://www.w3.org/2000/svg">
<g id="github_icon" clip-path="url(#clip0)">
<path id="github icon" fill-rule="evenodd" clip-rule="evenodd" d="M19.9999 0.23645C15.2509 0.236647 10.6569 1.92667 7.03994 5.00411C3.42297 8.08156 1.01905 12.3457 0.258319 17.0333C-0.502411 21.721 0.429687 26.5265 2.88783 30.5898C5.34598 34.6531 9.16976 37.7092 13.675 39.2112C14.675 39.3862 15.05 38.7863 15.05 38.2612C15.05 37.7862 15.025 36.2112 15.025 34.5363C9.99998 35.4612 8.69999 33.3113 8.3 32.1863C7.85615 31.0922 7.15255 30.1226 6.25001 29.3612C5.55002 28.9863 4.55002 28.0613 6.22499 28.0363C6.86456 28.1056 7.47798 28.3283 8.01326 28.6851C8.54854 29.042 8.98992 29.5226 9.29999 30.0863C9.57353 30.5777 9.94134 31.0103 10.3824 31.3593C10.8234 31.7083 11.3289 31.9668 11.87 32.1201C12.4111 32.2733 12.9772 32.3183 13.5357 32.2524C14.0942 32.1866 14.6343 32.0112 15.1249 31.7363C15.2115 30.7195 15.6646 29.7689 16.3999 29.0614C11.95 28.5614 7.3 26.8362 7.3 19.1863C7.2719 17.1987 8.00537 15.2756 9.34999 13.8115C8.73856 12.0838 8.8101 10.188 9.54999 8.51145C9.54999 8.51145 11.2249 7.98644 15.0499 10.5615C18.3225 9.66139 21.7773 9.66139 25.0499 10.5615C28.8748 7.96146 30.5498 8.51145 30.5498 8.51145C31.2898 10.188 31.3614 12.0838 30.7498 13.8115C32.0985 15.2731 32.8326 17.1978 32.7998 19.1863C32.7998 26.8612 28.1248 28.5614 23.6749 29.0614C24.1522 29.5451 24.5198 30.1259 24.7527 30.7644C24.9857 31.4028 25.0785 32.0839 25.0249 32.7613C25.0249 35.4364 24.9999 37.5863 24.9999 38.2612C24.9999 38.7863 25.3749 39.4113 26.3749 39.2113C30.8722 37.697 34.6849 34.6338 37.1326 30.5684C39.5803 26.503 40.5035 21.6999 39.7375 17.0168C38.9715 12.3337 36.5661 8.07514 32.9508 5.00144C29.3354 1.92774 24.7453 0.23892 19.9999 0.23645Z" fill="black"/>
</g>
<defs>
<clipPath id="clip0">
<rect width="40" height="40" fill="white"/>
</clipPath>
</defs>
</svg>
