<svg width="30" height="30" viewBox="0 0 30 30" fill="none" xmlns="http://www.w3.org/2000/svg">
<g id="link icon">
<g id="Group">
<g id="Group_2">
<path id="Shape" fill-rule="evenodd" clip-rule="evenodd" d="M23.8057 17.7226C23.8057 19.3073 23.8057 20.8919 23.8057 22.4766C23.8057 23.1527 23.8057 23.8289 23.8057 24.505C23.8057 24.8962 23.8256 25.2968 23.7738 25.6853C23.7915 25.5573 23.8092 25.4294 23.8269 25.3014C23.7856 25.5818 23.7107 25.8531 23.602 26.1149C23.6512 25.9974 23.7003 25.8798 23.7494 25.7623C23.6398 26.0167 23.5012 26.2545 23.3342 26.4756C23.4114 26.3743 23.4887 26.2729 23.5659 26.1716C23.3971 26.389 23.205 26.5836 22.9899 26.7553C23.0918 26.676 23.1938 26.5967 23.2957 26.5174C23.0653 26.6963 22.816 26.8437 22.5481 26.9592C22.6715 26.9077 22.7948 26.8563 22.9181 26.8048C22.6421 26.9193 22.3557 26.9962 22.0596 27.0357C22.1921 27.0186 22.3246 27.0015 22.4572 26.9844C22.1068 27.0262 21.7474 27.0103 21.3951 27.0103C20.7468 27.0103 20.0985 27.0103 19.4502 27.0103C17.4308 27.0103 15.4113 27.0103 13.3919 27.0103C11.3753 27.0103 9.35877 27.0103 7.34221 27.0103C6.69755 27.0103 6.05292 27.0103 5.40825 27.0103C5.04522 27.0103 4.67522 27.0265 4.31471 26.9784C4.44267 26.9961 4.5706 27.0138 4.69853 27.0315C4.41809 26.9902 4.14689 26.9153 3.88505 26.8067C4.00262 26.8558 4.12016 26.9049 4.23769 26.9541C3.98319 26.8444 3.74543 26.7059 3.52435 26.5389C3.62567 26.6161 3.72703 26.6933 3.82836 26.7705C3.61096 26.6017 3.41638 26.4097 3.24467 26.1945C3.32398 26.2965 3.40329 26.3984 3.4826 26.5003C3.30369 26.27 3.15623 26.0207 3.04079 25.7528C3.09227 25.8761 3.14371 25.9994 3.19519 26.1227C3.08068 25.8468 3.00379 25.5604 2.9643 25.2642C2.98137 25.3967 2.99848 25.5292 3.01555 25.6618C2.9738 25.3114 2.98964 24.952 2.98964 24.5997C2.98964 23.9514 2.98964 23.3032 2.98964 22.6549C2.98964 20.6354 2.98964 18.6159 2.98964 16.5965C2.98964 14.5799 2.98964 12.5634 2.98964 10.5468C2.98964 9.90214 2.98964 9.25751 2.98964 8.61285C2.98964 8.24981 2.97347 7.87981 3.02153 7.5193C3.00383 7.64726 2.98612 7.77519 2.96839 7.90315C3.00974 7.62272 3.0846 7.35148 3.19326 7.08968C3.14411 7.20721 3.09499 7.32478 3.04584 7.44231C3.1555 7.18782 3.29403 6.95002 3.46108 6.72897C3.38386 6.8303 3.30661 6.93166 3.2294 7.03299C3.39821 6.81558 3.59027 6.62097 3.80545 6.4493C3.70349 6.52861 3.60153 6.60791 3.4996 6.68722C3.72999 6.50835 3.97931 6.36086 4.24719 6.24541C4.12388 6.29689 4.00056 6.34834 3.87725 6.39981C4.1532 6.2853 4.43961 6.20842 4.73576 6.16893C4.60325 6.186 4.4707 6.2031 4.33819 6.22017C4.91374 6.15159 5.51446 6.19427 6.09221 6.19427C7.13736 6.19427 8.18252 6.19427 9.22768 6.19427C10.214 6.19427 11.2003 6.19427 12.1866 6.19427C13.0007 6.19427 13.6868 5.52838 13.6922 4.71019C13.6975 3.9001 13.0223 3.20459 12.2081 3.20459C10.6192 3.20459 9.03021 3.20459 7.44125 3.20459C6.63109 3.20459 5.82094 3.20459 5.01078 3.20459C4.59723 3.20459 4.19405 3.2371 3.78319 3.3094C3.3086 3.3929 2.83906 3.59057 2.41941 3.82036C2.00686 4.04626 1.62041 4.35579 1.29929 4.69873C0.428591 5.62871 0 6.83654 0 8.10059C0 8.55416 0 9.00772 0 9.46132C0 11.3045 0 13.1478 0 14.991C0 17.1156 0 19.2401 0 21.3647C0 22.6105 0 23.8562 0 25.102C0 25.4323 0.0392889 25.7538 0.083161 26.0828C0.147458 26.565 0.340083 27.033 0.554462 27.4649C0.763925 27.8868 1.07146 28.2772 1.40062 28.6107C2.31589 29.5381 3.58801 29.9999 4.87647 29.9999C6.12223 29.9999 7.36802 29.9999 8.61377 29.9999C10.7383 29.9999 12.8629 29.9999 14.9875 29.9999C16.8307 29.9999 18.6739 29.9999 20.5171 29.9999C20.9707 29.9999 21.4243 29.9999 21.8779 29.9999C22.0493 29.9999 22.2194 29.9974 22.3905 29.9794C22.687 29.9483 22.9853 29.9118 23.2742 29.8359C23.5727 29.7575 23.8624 29.6273 24.1421 29.5023C24.5738 29.3092 24.9661 29.0053 25.3126 28.6893C26.0018 28.0608 26.5146 27.1397 26.6888 26.2245C26.7659 25.8193 26.7954 25.4211 26.7954 25.0125C26.7954 24.2064 26.7954 23.4003 26.7954 22.5942C26.7954 20.9781 26.7954 19.362 26.7954 17.7459C26.7954 17.7453 26.7954 17.7447 26.7954 17.7441C26.7954 16.93 26.1295 16.244 25.3114 16.2385C24.5012 16.2332 23.8057 16.9084 23.8057 17.7226V17.7226V17.7226Z" fill="black"/>
</g>
</g>
<g id="Group_3">
<g id="Group_4">
<path id="Shape_2" fill-rule="evenodd" clip-rule="evenodd" d="M16.6113 2.98968C17.8503 2.99081 19.0893 2.99194 20.3283 2.9931C22.4084 2.99503 24.4885 2.99692 26.5685 2.99884C27.2104 2.99944 27.8523 3.00001 28.4941 3.0006C29.3083 3.00134 29.9943 2.33415 29.9997 1.51653C30.0051 0.705873 29.3299 0.0116574 28.5156 0.0109268C27.2766 0.00979761 26.0376 0.00866843 24.7986 0.00750603C22.7186 0.00558009 20.6385 0.00365383 18.5584 0.0017608C17.9166 0.00116299 17.2747 0.000598409 16.6328 6.01782e-07C15.8187 -0.000730041 15.1326 0.666451 15.1272 1.48408C15.1218 2.2947 15.7971 2.98891 16.6113 2.98968V2.98968V2.98968Z" fill="black"/>
</g>
</g>
<g id="Group_5">
<g id="Group_6">
<path id="Shape_3" fill-rule="evenodd" clip-rule="evenodd" d="M29.9889 13.3886C29.9901 12.1495 29.9912 10.9105 29.9924 9.67148C29.9943 7.59143 29.9962 5.51134 29.9982 3.43125C29.9988 2.78938 29.9993 2.14751 29.9999 1.50563C30.0007 0.691457 29.3335 0.0054453 28.5159 3.19261e-05C27.7052 -0.0053483 27.011 0.669903 27.0103 1.48411C27.0091 2.72316 27.008 3.96217 27.0068 5.20121C27.0049 7.28127 27.003 9.36136 27.001 11.4414C27.0004 12.0833 26.9999 12.7252 26.9993 13.3671C26.9985 14.1812 27.6657 14.8673 28.4833 14.8727C29.294 14.878 29.9882 14.2028 29.9889 13.3886V13.3886V13.3886Z" fill="black"/>
</g>
</g>
<g id="Group_7">
<g id="Group_8">
<path id="Shape_4" fill-rule="evenodd" clip-rule="evenodd" d="M12.7634 19.3349C13.2747 18.8241 13.7859 18.3133 14.2972 17.8025C15.5409 16.56 16.7845 15.3175 18.0281 14.075C19.5688 12.5357 21.1095 10.9964 22.6502 9.45716C24.0527 8.05594 25.4552 6.65473 26.8577 5.25351C27.6867 4.42525 28.5158 3.597 29.3448 2.76874C29.419 2.69455 29.4933 2.62039 29.5676 2.54619C30.143 1.97131 30.1332 1.00204 29.5562 0.43233C28.9746 -0.141993 28.0189 -0.132328 27.4424 0.443655C26.9311 0.954444 26.4198 1.46527 25.9085 1.97606C24.6649 3.21856 23.4213 4.46102 22.1777 5.70352C20.6369 7.24283 19.0963 8.78211 17.5555 10.3214C16.153 11.7226 14.7505 13.1238 13.348 14.525C12.519 15.3533 11.69 16.1815 10.8609 17.0098C10.7867 17.084 10.7124 17.1582 10.6382 17.2323C10.0628 17.8072 10.0726 18.7765 10.6495 19.3462C11.2312 19.9206 12.1869 19.9109 12.7634 19.3349V19.3349V19.3349Z" fill="black"/>
</g>
</g>
</g>
</svg>
