<svg width="13" height="13" viewBox="0 0 13 13" fill="none" xmlns="http://www.w3.org/2000/svg">
<g id="theme_icon">
<path id="Vector" d="M6.27126 3.64987C5.56893 3.67048 4.90227 3.96397 4.41277 4.46805C3.92328 4.97212 3.64948 5.64709 3.64949 6.34973C3.64684 6.70611 3.71475 7.05948 3.8493 7.38949C3.98385 7.71951 4.18238 8.01964 4.43344 8.27258C4.68451 8.52552 4.98315 8.72629 5.31216 8.86328C5.64116 9.00027 5.99403 9.0708 6.35042 9.0708C6.7068 9.0708 7.05967 9.00027 7.38867 8.86328C7.71768 8.72629 8.01632 8.52552 8.26739 8.27258C8.51845 8.01964 8.71698 7.71951 8.85153 7.38949C8.98608 7.05948 9.05399 6.70611 9.05134 6.34973C9.05135 5.98837 8.97884 5.63068 8.83812 5.29785C8.69739 4.96502 8.49132 4.66383 8.23208 4.41208C7.97285 4.16032 7.66574 3.96314 7.32893 3.83221C6.99212 3.70129 6.63247 3.63929 6.27126 3.64987ZM6.35006 3.90774V8.79242C5.70266 8.79189 5.08194 8.53435 4.62434 8.07638C4.16674 7.61841 3.9097 6.9975 3.9097 6.3501C3.9097 5.70269 4.16674 5.08178 4.62434 4.62381C5.08194 4.16584 5.70266 3.90827 6.35006 3.90774Z" fill="black"/>
<path id="Vector_2" d="M10.2831 2.23408L8.93471 3.58241C8.9107 3.60679 8.89731 3.63966 8.89746 3.67387C8.89762 3.70809 8.9113 3.74084 8.93552 3.765C8.95975 3.78916 8.99255 3.80275 9.02676 3.80281C9.06097 3.80287 9.09382 3.78941 9.11813 3.76533L10.4658 2.41701C10.4889 2.39254 10.5016 2.36004 10.5011 2.3264C10.5006 2.29276 10.487 2.26063 10.4632 2.23683C10.4395 2.21303 10.4074 2.19944 10.3737 2.19893C10.3401 2.19841 10.3076 2.21102 10.2831 2.23408Z" fill="black"/>
<path id="Vector_3" d="M12.0416 6.22064H10.1347C10.1006 6.22098 10.068 6.23475 10.044 6.25897C10.02 6.28319 10.0066 6.31592 10.0066 6.35001C10.0066 6.38409 10.02 6.41679 10.044 6.44101C10.068 6.46523 10.1006 6.47901 10.1347 6.47934H12.0416C12.0757 6.47901 12.1083 6.46523 12.1323 6.44101C12.1562 6.41679 12.1697 6.38409 12.1697 6.35001C12.1697 6.31592 12.1562 6.28319 12.1323 6.25897C12.1083 6.23475 12.0757 6.22098 12.0416 6.22064Z" fill="black"/>
<path id="Vector_4" d="M10.466 10.283L9.11826 8.93466C9.09394 8.91064 9.06111 8.89723 9.02692 8.89731C8.99274 8.89739 8.95997 8.91098 8.93577 8.93512C8.91156 8.95926 8.89788 8.99197 8.89771 9.02615C8.89753 9.06034 8.91088 9.09323 8.93483 9.11762L10.2832 10.4659C10.3077 10.4889 10.3402 10.5015 10.3738 10.5009C10.4074 10.5004 10.4395 10.4868 10.4632 10.463C10.487 10.4392 10.5005 10.4072 10.501 10.3736C10.5015 10.34 10.489 10.3075 10.466 10.283Z" fill="black"/>
<path id="Vector_5" d="M6.47946 12.0414V10.1346C6.47944 10.1003 6.4658 10.0675 6.44154 10.0432C6.41728 10.019 6.38438 10.0053 6.35008 10.0053C6.31578 10.0053 6.28288 10.019 6.25862 10.0432C6.23436 10.0675 6.22072 10.1003 6.2207 10.1346V12.0414C6.22072 12.0757 6.23436 12.1087 6.25862 12.1329C6.28288 12.1572 6.31578 12.1707 6.35008 12.1707C6.38438 12.1707 6.41728 12.1572 6.44154 12.1329C6.4658 12.1087 6.47944 12.0757 6.47946 12.0414Z" fill="black"/>
<path id="Vector_6" d="M2.41708 10.4659L3.76557 9.1176C3.78863 9.09312 3.80124 9.06061 3.80074 9.02699C3.80025 8.99337 3.78668 8.96127 3.76291 8.93749C3.73915 8.9137 3.70706 8.90011 3.67344 8.89958C3.63982 8.89905 3.60731 8.91162 3.58281 8.93465L2.23432 10.283C2.21131 10.3075 2.19872 10.34 2.19923 10.3736C2.19975 10.4072 2.21331 10.4392 2.23707 10.463C2.26082 10.4868 2.29289 10.5004 2.32649 10.5009C2.36008 10.5014 2.39258 10.4889 2.41708 10.4659Z" fill="black"/>
<path id="Vector_7" d="M0.6586 6.47934H2.56554C2.59963 6.47901 2.6322 6.46523 2.65619 6.44101C2.68017 6.41679 2.69363 6.38409 2.69363 6.35001C2.69363 6.31592 2.68017 6.28319 2.65619 6.25897C2.6322 6.23475 2.59963 6.22098 2.56554 6.22064H0.6586C0.624516 6.22098 0.59194 6.23475 0.567956 6.25897C0.543972 6.28319 0.530518 6.31592 0.530518 6.35001C0.530518 6.38409 0.543972 6.41679 0.567956 6.44101C0.59194 6.46523 0.624516 6.47901 0.6586 6.47934Z" fill="black"/>
<path id="Vector_8" d="M2.23424 2.41701L3.58273 3.76533C3.60723 3.7884 3.63974 3.80101 3.67338 3.80049C3.70702 3.79998 3.73914 3.78639 3.76292 3.76259C3.7867 3.73879 3.80027 3.70666 3.80075 3.67302C3.80123 3.63938 3.78858 3.60688 3.76549 3.58241L2.417 2.23408C2.39251 2.21102 2.35999 2.19841 2.32635 2.19893C2.29271 2.19944 2.26059 2.21303 2.23682 2.23683C2.21304 2.26063 2.19947 2.29276 2.19899 2.3264C2.19851 2.36004 2.21115 2.39254 2.23424 2.41701Z" fill="black"/>
<path id="Vector_9" d="M6.2207 0.658539V2.56537C6.22072 2.59967 6.23436 2.63255 6.25862 2.6568C6.28288 2.68105 6.31578 2.69467 6.35008 2.69467C6.38438 2.69467 6.41728 2.68105 6.44154 2.6568C6.4658 2.63255 6.47944 2.59967 6.47946 2.56537V0.658539C6.47944 0.624238 6.4658 0.591356 6.44154 0.567108C6.41728 0.542861 6.38438 0.529236 6.35008 0.529236C6.31578 0.529236 6.28288 0.542861 6.25862 0.567108C6.23436 0.591356 6.22072 0.624238 6.2207 0.658539Z" fill="black"/>
</g>
</svg>
